name p5_grf_mean_speed_1.8
datacolumns 13
datarows 28
range 0.0000000000 0.2700000000
endheader
time	grf_x_l_mean	grf_x_l_var	grf_y_l_mean	grf_y_l_var	grf_z_l_mean	grf_z_l_var	grf_x_r_mean	grf_x_r_var	grf_y_r_mean	grf_y_r_var	grf_z_r_mean	grf_z_r_var
0.0000000000	220.6999878074	1.0000000000	718.5434597198	1.0000000000	0.0000000000	0.0000000000	3.1014230913	1.0000000000	12.1936562831	1.0000000000	0.0000000000	0.0000000000
0.0100000000	226.0587608283	1.0000000000	682.1951644967	1.0000000000	0.0000000000	0.0000000000	-1.5659418445	1.0000000000	66.0627878370	1.0000000000	0.0000000000	0.0000000000
0.0200000000	223.7820721054	1.0000000000	628.7200827446	1.0000000000	0.0000000000	0.0000000000	-10.8122344544	1.0000000000	153.7170919159	1.0000000000	0.0000000000	0.0000000000
0.0300000000	212.3174977478	1.0000000000	559.5977238598	1.0000000000	0.0000000000	0.0000000000	-26.5938762983	1.0000000000	277.2920156088	1.0000000000	0.0000000000	0.0000000000
0.0400000000	191.3556872768	1.0000000000	478.7615944255	1.0000000000	0.0000000000	0.0000000000	-51.6412972507	1.0000000000	428.4360739336	1.0000000000	0.0000000000	0.0000000000
0.0500000000	161.7426589810	1.0000000000	392.0778660321	1.0000000000	0.0000000000	0.0000000000	-86.7135547211	1.0000000000	585.1792551942	1.0000000000	0.0000000000	0.0000000000
0.0600000000	126.1211053320	1.0000000000	305.6269517065	1.0000000000	0.0000000000	0.0000000000	-125.6679574746	1.0000000000	719.4857180137	1.0000000000	0.0000000000	0.0000000000
0.0700000000	89.9378560215	1.0000000000	224.8578406404	1.0000000000	0.0000000000	0.0000000000	-158.6677767731	1.0000000000	812.9497915505	1.0000000000	0.0000000000	0.0000000000
0.0800000000	58.5628354345	1.0000000000	154.7515978223	1.0000000000	0.0000000000	0.0000000000	-180.9779351111	1.0000000000	865.0975054672	1.0000000000	0.0000000000	0.0000000000
0.0900000000	33.7773237819	1.0000000000	98.7584677404	1.0000000000	0.0000000000	0.0000000000	-194.1551960089	1.0000000000	890.1668543601	1.0000000000	0.0000000000	0.0000000000
0.1000000000	15.9282560267	1.0000000000	57.6401494201	1.0000000000	0.0000000000	0.0000000000	-200.6304706332	1.0000000000	905.2839097725	1.0000000000	0.0000000000	0.0000000000
0.1100000000	5.0386459005	1.0000000000	29.4504033164	1.0000000000	0.0000000000	0.0000000000	-199.2337491772	1.0000000000	919.4669999001	1.0000000000	0.0000000000	0.0000000000
0.1200000000	0.0035930349	1.0000000000	11.2304865587	1.0000000000	0.0000000000	0.0000000000	-189.1422497052	1.0000000000	932.5268210699	1.0000000000	0.0000000000	0.0000000000
0.1300000000	-2.0696683569	1.0000000000	0.7695942880	1.0000000000	0.0000000000	0.0000000000	-173.5744596112	1.0000000000	940.8270762960	1.0000000000	0.0000000000	0.0000000000
0.1400000000	0.0000000000	1.0000000000	0.0000000000	1.0000000000	0.0000000000	0.0000000000	-156.2699969241	1.0000000000	941.9465429369	1.0000000000	0.0000000000	0.0000000000
0.1500000000	0.0000000000	1.0000000000	0.0000000000	1.0000000000	0.0000000000	0.0000000000	-138.4760469960	1.0000000000	934.8380909408	1.0000000000	0.0000000000	0.0000000000
0.1600000000	0.0000000000	1.0000000000	0.0000000000	1.0000000000	0.0000000000	0.0000000000	-120.3446829808	1.0000000000	918.7141327894	1.0000000000	0.0000000000	0.0000000000
0.1700000000	0.0000000000	1.0000000000	0.0000000000	1.0000000000	0.0000000000	0.0000000000	-103.7724248903	1.0000000000	893.4845149971	1.0000000000	0.0000000000	0.0000000000
0.1800000000	0.0000000000	1.0000000000	0.0000000000	1.0000000000	0.0000000000	0.0000000000	-90.0410311736	1.0000000000	860.4653325652	1.0000000000	0.0000000000	0.0000000000
0.1900000000	0.0000000000	1.0000000000	0.0000000000	1.0000000000	0.0000000000	0.0000000000	-77.3227386750	1.0000000000	821.5104737445	1.0000000000	0.0000000000	0.0000000000
0.2000000000	0.1107120189	1.0000000000	0.3796310514	1.0000000000	0.0000000000	0.0000000000	-64.5171927027	1.0000000000	777.9973765007	1.0000000000	0.0000000000	0.0000000000
0.2100000000	0.2779207044	1.0000000000	0.1438482696	1.0000000000	0.0000000000	0.0000000000	-52.8351316912	1.0000000000	731.4638561842	1.0000000000	0.0000000000	0.0000000000
0.2200000000	0.0000000000	1.0000000000	0.0000000000	1.0000000000	0.0000000000	0.0000000000	-43.2661817810	1.0000000000	684.4349825861	1.0000000000	0.0000000000	0.0000000000
0.2300000000	-0.2765762083	1.0000000000	0.3364233270	1.0000000000	0.0000000000	0.0000000000	-35.2391319122	1.0000000000	639.4541877522	1.0000000000	0.0000000000	0.0000000000
0.2400000000	0.6612273390	1.0000000000	0.9665576402	1.0000000000	0.0000000000	0.0000000000	-27.8153626387	1.0000000000	597.4710626421	1.0000000000	0.0000000000	0.0000000000
0.2500000000	0.6151580040	1.0000000000	0.7111406755	1.0000000000	0.0000000000	0.0000000000	-21.6006268006	1.0000000000	557.9659629645	1.0000000000	0.0000000000	0.0000000000
0.2600000000	0.0000000000	1.0000000000	0.0000000000	1.0000000000	0.0000000000	0.0000000000	-16.7501187391	1.0000000000	521.1150510909	1.0000000000	0.0000000000	0.0000000000
0.2700000000	0.0000000000	1.0000000000	0.0000000000	1.0000000000	0.0000000000	0.0000000000	-12.0584762897	1.0000000000	489.3146327911	1.0000000000	0.0000000000	0.0000000000
